<svg width="97" height="40" viewBox="0 0 97 40" fill="none" xmlns="http://www.w3.org/2000/svg">
<g id="Arch 3">
<path id="Subtract" fill-rule="evenodd" clip-rule="evenodd" d="M13.0822 33.0137L10.8219 39.2694H0L15.3425 1.59814H24.6575L40 39.2694H29.1781L26.9178 33.0137H13.0822ZM20 15.2511L16.5068 24.2009H23.4931L20 15.2511Z" fill="white"/>
<path id="Path" d="M45.2968 39.2694V27.8082C45.2968 27.0319 45.5175 26.309 45.9589 25.6392C46.4003 24.9695 46.9825 24.4254 47.7055 24.0068C48.4284 23.5883 49.1933 23.379 50 23.379C50.6393 23.379 51.3432 23.5083 52.1119 23.7671C52.8805 24.0258 53.5464 24.3683 54.1096 24.7945L58.0822 16.8036C57.4277 16.3166 56.5982 15.9208 55.5936 15.6164C54.589 15.312 53.6377 15.1598 52.7397 15.1598C51.3546 15.1598 50.0114 15.5137 48.71 16.2214C47.4087 16.9292 46.2709 17.9147 45.2968 19.1781V15.8904H35.7991V39.2694H45.2968Z" fill="white"/>
<path id="Path_2" d="M64.2922 40C65.799 40 67.2336 39.7907 68.5958 39.3721C69.9581 38.9535 71.035 38.4627 71.8264 37.8995L68.7214 31.5068C68.4322 31.7047 68.0327 31.8835 67.5228 32.0434C67.0129 32.2032 66.4535 32.2831 65.8447 32.2831C64.8554 32.2831 63.9954 32.0662 63.2648 31.6324C62.5342 31.1986 61.9748 30.624 61.5867 29.9086C61.1986 29.1933 61.0045 28.417 61.0045 27.5799C61.0045 26.9102 61.1681 26.21 61.4954 25.4794C61.8226 24.7488 62.3401 24.1324 63.0479 23.6301C63.7557 23.1278 64.6727 22.8767 65.799 22.8767C66.9863 22.8767 67.9604 23.1354 68.7214 23.6529L71.8264 17.2602C71.0654 16.6819 69.9847 16.1872 68.5844 15.7762C67.1841 15.3653 65.7382 15.1598 64.2465 15.1598C62.3439 15.1598 60.5821 15.5061 58.9611 16.1986C57.3401 16.8911 55.9322 17.8272 54.7374 19.0068C53.5426 20.1864 52.6141 21.5182 51.952 23.0023C51.2899 24.4863 50.9589 26.0198 50.9589 27.6027C50.9589 29.2922 51.3127 30.8866 52.0205 32.3858C52.7283 33.8851 53.6986 35.2055 54.9315 36.347C56.1643 37.4886 57.5837 38.3828 59.1895 39.0297C60.7952 39.6765 62.4962 40 64.2922 40Z" fill="white"/>
<path id="Path_3" d="M78.9954 39.2694V26.3927C78.9954 25.6012 79.1552 24.9163 79.4748 24.3379C79.7945 23.7595 80.2435 23.3105 80.8219 22.9909C81.4003 22.6712 82.07 22.5114 82.831 22.5114C83.9878 22.5114 84.9162 22.8653 85.6164 23.5731C86.3166 24.2808 86.6666 25.2207 86.6666 26.3927V39.2694H96.1643V24.3379C96.1643 22.5875 95.7534 21.0236 94.9315 19.6461C94.1096 18.2686 92.9946 17.1766 91.5867 16.3699C90.1788 15.5632 88.5844 15.1598 86.8036 15.1598C85.4033 15.1598 84.022 15.4148 82.6598 15.9247C81.2975 16.4346 80.0761 17.1537 78.9954 18.0822V0H69.4977V39.2694H78.9954Z" fill="white"/>
</g>
</svg>
